<svg width="32" height="32" viewBox="0 0 32 32" fill="none" xmlns="http://www.w3.org/2000/svg">
<rect width="32" height="32" fill="black"/>
<path d="M9.36 11.216C9.36 11.2693 9.36 11.3227 9.36 11.376V11.584C9.36 12.16 9.10933 12.7413 8.608 13.328C8.11733 13.904 7.57333 14.384 6.976 14.768C6.82667 14.8533 6.704 14.896 6.608 14.896C6.42667 14.896 6.27733 14.7627 6.16 14.496C6.05333 14.2187 6 13.9893 6 13.808C6 13.616 6.06933 13.424 6.208 13.232C7.12533 12.016 8.13333 11.0347 9.232 10.288C9.44533 10.1387 9.68533 10.064 9.952 10.064C10.2293 10.064 10.528 10.1493 10.848 10.32C11.296 10.5547 11.52 11.0027 11.52 11.664C11.52 11.984 11.4453 12.3787 11.296 12.848C11.1573 13.3067 11.024 13.7227 10.896 14.096C10.7787 14.4587 10.7093 14.6773 10.688 14.752C11.2 14.272 11.808 13.4773 12.512 12.368C12.7787 11.9413 12.9653 11.648 13.072 11.488C13.6267 10.6133 13.9627 10.0533 14.08 9.808C14.08 9.54133 14.16 9.408 14.32 9.408C14.4267 9.408 14.5493 9.47733 14.688 9.616C14.8373 9.744 14.9493 9.84 15.024 9.904C15.1093 9.968 15.152 10.0373 15.152 10.112C15.152 10.1867 15.12 10.2773 15.056 10.384C14.256 12.1973 12.9387 14.0747 11.104 16.016C11.0827 16.0373 11.072 16.064 11.072 16.096C11.072 16.256 11.2533 16.336 11.616 16.336C12.1387 16.4747 12.5493 16.8747 12.848 17.536C12.8907 17.6213 12.9973 17.8827 13.168 18.32C13.3493 18.7467 13.4933 19.072 13.6 19.296C13.7067 19.552 13.84 19.68 14 19.68C14.064 19.68 14.1387 19.6533 14.224 19.6C14.3093 19.5467 14.368 19.52 14.4 19.52C14.56 19.52 14.64 19.7227 14.64 20.128C14.64 20.5227 14.6133 20.7947 14.56 20.944C14.5067 21.0827 14.3413 21.2533 14.064 21.456C13.7973 21.6587 13.5733 21.76 13.392 21.76C13.2213 21.76 12.9813 21.5787 12.672 21.216C12.3627 20.8427 12.0533 20.1973 11.744 19.28C11.4347 18.3627 11.232 17.8027 11.136 17.6C11.0187 17.3227 10.8747 17.184 10.704 17.184C10.544 17.184 10.4053 17.28 10.288 17.472C10.1813 17.6533 10.0427 17.7387 9.872 17.728C9.712 18.4747 9.632 19.0773 9.632 19.536C9.632 19.984 9.648 20.304 9.68 20.496C9.712 20.688 9.728 20.8373 9.728 20.944C9.728 21.0507 9.65333 21.1733 9.504 21.312C9.35467 21.4507 9.20533 21.52 9.056 21.52C8.91733 21.52 8.74133 21.4027 8.528 21.168C8.38933 21.0293 8.31467 20.9067 8.304 20.8C8.28267 20.5973 8.26133 20.3307 8.24 20C8.21867 19.6693 8.208 19.3813 8.208 19.136C8.208 18.3147 8.29867 17.4933 8.48 16.672C8.672 15.8507 8.93867 14.9227 9.28 13.888C9.78133 12.3733 10.032 11.5093 10.032 11.296C10.032 11.0827 9.936 10.976 9.744 10.976C9.50933 10.976 9.38133 11.056 9.36 11.216ZM22.5956 9.968C23.4596 11.5253 23.8916 13.1947 23.8916 14.976C23.8916 16.7573 23.401 18.4853 22.4196 20.16C22.0783 20.7467 21.5983 21.04 20.9796 21.04C20.3076 21.04 19.8436 20.6507 19.5876 19.872C19.4703 19.52 19.3743 19.136 19.2996 18.72C19.2356 18.2933 19.193 18.0267 19.1716 17.92C19.0863 18.0907 18.9316 18.448 18.7076 18.992C18.4943 19.5253 18.313 19.9307 18.1636 20.208C17.9396 20.656 17.6196 20.88 17.2036 20.88C16.8943 20.88 16.617 20.7627 16.3716 20.528C16.169 20.3147 16.041 19.8987 15.9876 19.28C15.977 19.0773 15.961 18.8907 15.9396 18.72C15.929 18.5493 15.9236 18.3893 15.9236 18.24C15.9236 18.0907 15.9396 17.9093 15.9716 17.696C16.0036 17.4827 16.0356 17.28 16.0676 17.088C16.1103 16.896 16.1743 16.6667 16.2596 16.4C16.345 16.1333 16.4196 15.9093 16.4836 15.728C16.5476 15.536 16.6383 15.2907 16.7556 14.992C16.8836 14.6933 16.9796 14.4693 17.0436 14.32C17.1076 14.16 17.209 13.9253 17.3476 13.616C17.497 13.3067 17.5983 13.0933 17.6516 12.976C17.7903 12.6453 17.9663 12.2667 18.1796 11.84C17.4863 12.576 16.745 13.0827 15.9556 13.36C15.7316 13.4347 15.5023 13.472 15.2676 13.472C15.0436 13.472 14.8623 13.3813 14.7236 13.2C14.585 13.0187 14.5156 12.7627 14.5156 12.432C14.5156 12.1013 14.7183 11.744 15.1236 11.36C15.5396 10.976 16.0036 10.672 16.5156 10.448C17.0276 10.224 17.4863 10.112 17.8916 10.112C18.3076 10.112 18.6916 10.2453 19.0436 10.512C19.4063 10.7787 19.5876 11.1307 19.5876 11.568C19.5876 11.728 19.5236 11.9733 19.3956 12.304C19.2783 12.6347 19.0436 13.232 18.6916 14.096C17.9236 16.0053 17.4116 17.5093 17.1556 18.608C17.1343 18.6933 17.1236 18.7787 17.1236 18.864C17.1236 18.9387 17.161 18.976 17.2356 18.976C17.5556 18.976 18.1956 17.5307 19.1556 14.64C19.081 14.544 19.0436 14.448 19.0436 14.352C19.0436 14.2133 19.1716 14.144 19.4276 14.144C19.9503 14.144 20.3023 14.1547 20.4836 14.176C20.665 14.1973 20.7556 14.256 20.7556 14.352C20.7556 14.448 20.7183 14.5227 20.6436 14.576C20.5263 15.824 20.4676 16.6613 20.4676 17.088C20.4676 17.5147 20.5103 18.064 20.5956 18.736C20.681 19.408 20.8143 19.744 20.9956 19.744C21.1556 19.744 21.3156 19.5467 21.4756 19.152C22.1903 17.584 22.5476 16.048 22.5476 14.544C22.5476 13.0293 22.153 11.632 21.3636 10.352C21.2463 10.1813 21.1876 10.016 21.1876 9.856C21.1876 9.6 21.3743 9.472 21.7476 9.472C22.121 9.472 22.4036 9.63733 22.5956 9.968ZM17.1556 10.88C16.441 10.9973 15.9076 11.232 15.5556 11.584C15.4383 11.7013 15.3796 11.808 15.3796 11.904C15.3796 12 15.4436 12.048 15.5716 12.048C15.9236 12.048 16.4516 11.6587 17.1556 10.88Z" fill="white"/>
</svg>
